<?xml version="1.0" encoding="utf-8"?>
<!-- Generator: Adobe Illustrator 16.0.0, SVG Export Plug-In . SVG Version: 6.00 Build 0)  -->
<!DOCTYPE svg PUBLIC "-//W3C//DTD SVG 1.1//EN" "http://www.w3.org/Graphics/SVG/1.1/DTD/svg11.dtd">
<svg version="1.1" id="Capa_1" xmlns="http://www.w3.org/2000/svg" xmlns:xlink="http://www.w3.org/1999/xlink" x="0px" y="0px"
	 width="124.724px" height="124.725px" viewBox="31.267 0 124.724 124.725" enable-background="new 31.267 0 124.724 124.725"
	 xml:space="preserve">
<g>
	<text transform="matrix(1 0 0 1 40.7642 78.1836)" fill="#E2212B" font-family="'Sniglet-ExtraBold'" font-size="17.8893">de</text>
	<text transform="matrix(1 0 0 1 64.188 78.1836)" fill="#E2212B" font-family="'Sniglet-ExtraBold'" font-size="17.8893">moment</text>
	<g>
		<text transform="matrix(1 0 0 1 53.856 95.0049)" fill="#E2212B" font-family="'Sniglet-ExtraBold'" font-size="17.8893">som</text>
		<text transform="matrix(1 0 0 1 92.7891 95.0049)" fill="#E2212B" font-family="'Sniglet-ExtraBold'" font-size="17.8893">tres</text>
	</g>
	<g>
		<path fill="#F7323F" d="M73.104,24.369H60.442c-6.993,0-12.664,5.672-12.664,12.663l-0.014,12.664
			c0,8.401,6.809,15.213,15.211,15.213v-5.078c0-2.801,2.267-5.067,5.067-5.067h5.061c8.389,0,15.198-6.809,15.198-15.199
			C88.302,31.174,81.492,24.369,73.104,24.369z M71.879,45.356h-7.814c-2.791,0-5.066-2.999-5.066-5.791
			c0-2.794,2.275-5.786,5.066-5.786l7.983-0.002c2.265,0,4.976,2.524,4.976,5.967C77.022,42.117,75.176,45.356,71.879,45.356z"/>
		<path fill="#FF5000" d="M98.847,2.811H88.662c-8.521,0-15.168,4.011-15.168,15.415c0,11.35,6.647,14.979,15.194,14.979h10.158
			c6.971,0,15.139-3.629,15.139-14.979C113.984,6.932,105.817,2.811,98.847,2.811z M97.758,23.795l-9.051,0.001
			c-2.791,0-5.779-2.779-5.779-5.57c0-2.794,2.988-6.006,5.779-6.006l9.072-0.002c2.267,0,4.976,2.762,4.976,5.604
			C102.755,20.195,100.365,23.795,97.758,23.795z"/>
		<path fill="#F6AF32" d="M119.832,20.631h-3.229c-8.521,0-15.168,4.012-15.168,15.415c0,11.349,6.648,14.978,15.197,14.978h3.201
			c6.973,0,15.139-3.629,15.139-14.978C134.972,24.752,126.804,20.631,119.832,20.631z M119.832,40.888l-3.185,0.001
			c-2.791,0-5.053-2.053-5.053-4.844c0-2.795,2.262-5.279,5.053-5.279l3.205-0.002c2.268,0,4.977,2.398,4.977,5.24
			C124.829,38.378,122.438,40.888,119.832,40.888z"/>
		<g>
			<circle fill="#FF5000" cx="90.14" cy="20.302" r="2.786"/>
			<path fill="#FF5000" d="M90.139,20.302"/>
		</g>
		<g>
			<circle fill="#F6AF32" cx="116.593" cy="34.35" r="2.787"/>
			<path fill="#F6AF32" d="M116.595,34.35"/>
		</g>
		<g>
			<circle fill="#E2212B" cx="71.84" cy="41.578" r="2.787"/>
			<path fill="#E2212B" d="M71.839,41.578"/>
		</g>
	</g>
</g>
<text transform="matrix(1 0 0 1 64.0356 106.5967)"><tspan x="0" y="0" fill="#E2212B" font-family="'OpenSans-Light'" font-size="11">comunicació </tspan><tspan x="-14.932" y="13.2" fill="#E2212B" font-family="'OpenSans-Light'" font-size="11">i màrqueting digital</tspan></text>
</svg>
